<svg xmlns="http://www.w3.org/2000/svg" viewBox="0 0 100 100">
  <defs>
    <linearGradient id="chiliGradient" x1="0%" y1="0%" x2="0%" y2="100%">
      <stop offset="0%" style="stop-color:#FF0000;stop-opacity:1" />
      <stop offset="50%" style="stop-color:#C41E3A;stop-opacity:1" />
      <stop offset="100%" style="stop-color:#8B0000;stop-opacity:1" />
    </linearGradient>
    <linearGradient id="stemGradient" x1="0%" y1="0%" x2="0%" y2="100%">
      <stop offset="0%" style="stop-color:#90EE90;stop-opacity:1" />
      <stop offset="100%" style="stop-color:#228B22;stop-opacity:1" />
    </linearGradient>
  </defs>

  <!-- Background Circle -->
  <circle cx="50" cy="50" r="48" fill="#FFF8E7" stroke="#C41E3A" stroke-width="2"/>

  <!-- Chili Stem -->
  <path d="M 45 18 Q 48 15 50 20 Q 52 25 48 28"
        fill="url(#stemGradient)"
        stroke="#1a5c1a"
        stroke-width="1"/>

  <!-- Chili Body -->
  <path d="M 45 25 Q 42 30 42 40 Q 42 50 43 60 Q 44 70 45 78 Q 46 82 48 84 Q 50 86 52 84 Q 54 82 55 78 Q 56 70 57 60 Q 58 50 58 40 Q 58 30 55 25 Q 52 22 50 22 Q 48 22 45 25 Z"
        fill="url(#chiliGradient)"
        stroke="#8B0000"
        stroke-width="1.5"/>

  <!-- Chili Highlight -->
  <ellipse cx="47" cy="35" rx="3" ry="8" fill="#FF6B6B" opacity="0.6"/>

  <!-- Small Swiss Cross (subtle) -->
  <g opacity="0.3">
    <rect x="73" y="20" width="3" height="10" fill="#FF0000"/>
    <rect x="70" y="23" width="9" height="3" fill="#FF0000"/>
  </g>

  <!-- Flame effect at bottom -->
  <path d="M 48 80 Q 46 83 47 85 Q 48 87 50 86 Q 52 85 53 83 Q 54 81 52 80"
        fill="#FF6B35"
        opacity="0.7"/>
</svg>
